Coordinates
version=1
nRows=13
nColumns=36
inDegrees=yes

Units are S.I. units (second, meters, Newtons, ...)
If the header above contains a line with 'inDegrees', this indicates whether rotational values are in degrees (yes) or radians (no).

endheader
time	pelvis_tilt	pelvis_list	pelvis_rotation	pelvis_tx	pelvis_ty	pelvis_tz	hip_flexion_r	hip_adduction_r	hip_rotation_r	knee_angle_r	knee_angle_r_beta	ankle_angle_r	subtalar_angle_r	mtp_angle_r	hip_flexion_l	hip_adduction_l	hip_rotation_l	knee_angle_l	knee_angle_l_beta	ankle_angle_l	subtalar_angle_l	mtp_angle_l	lumbar_extension	lumbar_bending	lumbar_rotation	arm_flex_r	arm_add_r	arm_rot_r	elbow_flex_r	pro_sup_r	arm_flex_l	arm_add_l	arm_rot_l	elbow_flex_l	pro_sup_l
      0.60000000	     -5.06070842	      5.27893344	     87.84432180	     -0.24344636	      0.95550093	      0.30751976	     -5.17806125	    -10.23780553	     -5.43374498	     49.14537080	      0.85774853	    -21.68952634	    -18.75389327	     -7.49970198	      9.70923333	      6.40151505	    -12.05277200	     21.17370203	      0.36955082	      4.35854165	     -1.97640666	     -7.49970198	    -17.64868689	     -5.05500067	      1.01984383	      2.04289008	     -4.36567639	    -30.43576273	     53.84156357	     97.58247647	     -1.85318597	     -4.15353268	    -33.26473314	     32.27998917	     86.73787487
      0.61000000	     -5.05412331	      5.05281055	     87.27587518	     -0.24390032	      0.95652858	      0.29594670	     -3.24500524	    -10.46257355	     -4.56998112	     51.84439301	      0.90485536	    -22.40677113	    -20.43796515	     -7.49971278	      9.02455544	      6.43139780	    -12.52704315	     20.89517153	      0.36468954	      4.94004368	     -1.50517597	     -7.49971278	    -17.36729606	     -5.17779981	      1.33095550	      1.95505001	     -4.26099310	    -30.61970948	     53.35706530	     97.86744211	     -1.61954517	     -4.12429095	    -33.15820033	     32.41857405	     86.95768164
      0.62000000	     -4.86167929	      4.62742641	     87.01688470	     -0.24448638	      0.95725321	      0.28515469	     -1.15744716	    -10.38429087	     -4.11519808	     54.31878675	      0.94804167	    -22.97459695	    -22.98415661	     -7.49972448	      8.68516662	      6.28022215	    -12.60908362	     20.82440976	      0.36345452	      5.58452090	     -1.12945086	     -7.49972448	    -17.03532285	     -5.04763987	      1.35728461	      2.00397692	     -4.13588664	    -30.78106361	     52.76945245	     98.30941104	     -1.22070396	     -4.15477067	    -33.15755182	     32.53557238	     87.32248958
      0.63000000	     -4.79929504	      4.49670916	     86.55042478	     -0.24506804	      0.95849811	      0.27397413	      0.59071397	    -10.57537305	     -3.76149920	     56.45561480	      0.98533636	    -22.51991492	    -25.18927913	     -7.49973065	      7.78537036	      6.31751218	    -12.96750507	     20.26515718	      0.35369372	      6.03365509	     -0.68032461	     -7.49973065	    -16.95744308	     -5.06915297	      1.47754717	      2.04423117	     -4.09339963	    -30.85238107	     52.25093459	     98.75523680	     -0.94979715	     -4.15859735	    -33.02998847	     32.78816111	     87.73689975
      0.64000000	     -4.71271064	      4.24589046	     86.01737945	     -0.24553161	      0.95948354	      0.26307897	      2.58756564	    -10.63675583	     -3.30339634	     58.46770301	      1.02045392	    -21.31938121	    -27.51668339	     -7.49973777	      7.05824849	      6.30603313	    -13.48149861	     19.75728563	      0.34482969	      6.47747925	     -0.12869593	     -7.49973777	    -16.76093252	     -5.05069452	      1.61640559	      2.17431256	     -4.06355394	    -30.90288763	     51.62248154	     99.14682171	     -0.69214926	     -4.20200105	    -32.75664865	     33.11718668	     88.14784563
      0.65000000	     -4.74087546	      3.87406476	     85.62015140	     -0.24618243	      0.96027563	      0.25247647	      4.73546502	    -10.74165368	     -2.97103103	     60.23262143	      1.05125756	    -19.97250130	    -29.52778405	     -7.49974562	      6.40792694	      6.49297656	    -13.63342809	     19.04267859	      0.33235744	      6.67519958	      0.20509128	     -7.49974562	    -16.50824525	     -5.14531166	      1.68119463	      2.24231903	     -4.01439854	    -30.98485429	     51.09197824	     99.56092387	     -0.33627699	     -4.31036908	    -32.30008616	     33.50077894	     88.60405628
      0.66000000	     -4.54794984	      3.68696660	     85.53717135	     -0.24711169	      0.96146754	      0.24206447	      6.50374992	    -10.62452099	     -3.06027842	     61.47661813	      1.07296940	    -18.62515176	    -31.30689282	     -7.49975073	      5.57858304	      6.50788844	    -13.27816439	     18.37771381	      0.32075161	      6.96978279	      0.34821670	     -7.49975073	    -16.53053264	     -4.91592277	      1.43887836	      2.30072129	     -4.04346196	    -30.88823886	     50.72036800	     99.35779730	      0.18252094	     -4.40788082	    -32.00711552	     33.70785957	     88.28261986
      0.67000000	     -4.54709656	      3.35182715	     85.17828548	     -0.24766615	      0.96226235	      0.23172732	      8.59906497	    -10.61808963	     -2.75566778	     62.62235015	      1.09296620	    -17.17399746	    -32.24662416	     -7.49976661	      4.86311504	      6.66368720	    -13.53980218	     17.55264334	      0.30635142	      6.95972400	      0.69839293	     -7.49976661	    -16.33749838	     -4.95453711	      1.38063122	      2.42655215	     -4.01880218	    -30.78385556	     50.16307014	     98.42178961	      0.51239679	     -4.61226817	    -31.21566059	     34.10986500	     87.28858151
      0.68000000	     -4.46423275	      3.24240619	     85.06843740	     -0.24839477	      0.96336054	      0.22127211	     10.23617213	    -10.58116222	     -2.86212696	     63.28794643	      1.10458304	    -15.16052378	    -32.69435608	     -7.49977140	      3.85203140	      6.78218696	    -13.55563582	     16.66028628	      0.29077685	      6.93133747	      1.14066801	     -7.49977140	    -16.44151336	     -4.86882663	      1.15630146	      2.50006722	     -3.94744012	    -30.93328387	     49.84925307	     98.85214575	      0.91925693	     -4.83296803	    -30.57613814	     34.61998151	     87.59762718
      0.69000000	     -4.27117222	      3.13229344	     85.10542650	     -0.24921312	      0.96449514	      0.21094618	     11.75451128	    -10.31296290	     -3.00149585	     63.59228387	      1.10989473	    -13.10216966	    -32.94903592	     -7.49977560	      2.88563287	      6.77020693	    -13.47622010	     15.87021310	      0.27698747	      6.90946557	      1.60046476	     -7.49977560	    -16.56397943	     -4.62340748	      0.80469937	      2.56033675	     -3.90432892	    -30.97531414	     49.53382640	     99.15897936	      1.41381211	     -5.06841551	    -29.93422737	     35.01081061	     87.81573255
      0.70000000	     -4.08369815	      3.10893868	     85.19971241	     -0.24994301	      0.96563421	      0.20058593	     13.08308837	    -10.01295825	     -3.16988312	     63.57197746	      1.10954032	    -11.39320580	    -33.02008322	     -7.49978242	      1.78400648	      6.75872167	    -13.32881801	     15.01320233	      0.26202981	      6.94601426	      2.31618994	     -7.49978242	    -16.79462915	     -4.40804596	      0.42452818	      2.62658470	     -3.83197581	    -31.12672506	     49.22758097	     99.71847308	      1.88471638	     -5.50155027	    -28.84832288	     35.48074948	     88.17416201
      0.71000000	     -3.74340277	      2.90176955	     85.36792796	     -0.25082887	      0.96652962	      0.19046703	     14.52933897	     -9.49872083	     -3.44263078	     63.20217006	      1.10308596	     -9.66234752	    -33.12961369	     -7.49978463	      1.03163787	      6.52886489	    -13.16219730	     14.48281192	      0.25277275	      6.89010641	      2.64906666	     -7.49978463	    -16.86448952	     -3.94197942	      0.05446588	      2.60386366	     -3.83621189	    -31.16089914	     49.09127530	     99.74954040	      2.48763808	     -5.59985673	    -28.52431390	     35.81557808	     88.17793206
      0.72000000	     -3.37147708	      3.05334667	     85.62915986	     -0.25159236	      0.96784539	      0.17993834	     15.36073642	     -9.05447368	     -3.98593569	     62.36227382	      1.08842701	     -7.85051828	    -32.68331172	     -7.49981882	     -0.20579588	      6.24023477	    -13.27690763	     13.81861371	      0.24118031	      6.83399613	      3.55453837	     -7.49981882	    -17.28547606	     -3.49606754	     -0.39530077	      2.62295160	     -3.85453032	    -31.03148670	     48.76722295	     96.83439170	      2.99104743	     -6.12497485	    -26.73928156	     36.28518668	     85.55428727
